<?xml version="1.0" encoding="UTF-8"?>
<svg id="Layer_1" data-name="Layer 1" xmlns="http://www.w3.org/2000/svg" viewBox="0 0 800 800">
  <polygon points="134.69 330.1 336.35 213.69 336.38 353.41 376.72 330.13 376.72 143.82 54.01 330.16 175.03 400.03 54.01 469.87 376.69 656.18 376.72 469.87 296.04 423.28 255.7 446.59 336.38 493.15 336.38 586.34 336.35 586.34 134.69 469.84 255.67 400 134.69 330.1"/>
  <polygon points="587.38 237.25 547.04 260.54 665.31 330.13 544.3 400 665.31 469.87 463.59 586.31 463.62 167.1 463.59 167.1 423.28 143.82 423.28 656.18 745.99 469.87 624.97 400 745.99 330.13 587.38 237.25"/>
</svg>